PathFileType	4	(X/Y/Z)	s08c0302.trc
DataRate	CameraRate	NumFrames	NumMarkers	Units	OrigDataRate	OrigDataStartFrame	OrigNumFrames
200	200	4	50	mm	200	0	2000
Frame#	Time	racr			lacr			c7			jug			rlel			rdr			llel			ldr			s2			lic			ric			lasi			rasi			rpsi			lpsi			rgt			lgt			rth1			rth2			rth3			rth4			rlfc			rmfc			rsh1			rsh2			rsh3			rsh4			rlmal			rmmal			rcal			rtoe			rmt5			lth1			lth2			lth4			lth3			llfc			lmfc			llmal			lmmal			lcal			lmt5			lsh1			lsh2			lsh3			lsh4			ltoe			SBIKE			LBIKE			RBIKE			
		X1	Y1	Z1	X2	Y2	Z2	X3	Y3	Z3	X4	Y4	Z4	X5	Y5	Z5	X6	Y6	Z6	X7	Y7	Z7	X8	Y8	Z8	X9	Y9	Z9	X10	Y10	Z10	X11	Y11	Z11	X12	Y12	Z12	X13	Y13	Z13	X14	Y14	Z14	X15	Y15	Z15	X16	Y16	Z16	X17	Y17	Z17	X18	Y18	Z18	X19	Y19	Z19	X20	Y20	Z20	X21	Y21	Z21	X22	Y22	Z22	X23	Y23	Z23	X24	Y24	Z24	X25	Y25	Z25	X26	Y26	Z26	X27	Y27	Z27	X28	Y28	Z28	X29	Y29	Z29	X30	Y30	Z30	X31	Y31	Z31	X32	Y32	Z32	X33	Y33	Z33	X34	Y34	Z34	X35	Y35	Z35	X36	Y36	Z36	X37	Y37	Z37	X38	Y38	Z38	X39	Y39	Z39	X40	Y40	Z40	X41	Y41	Z41	X42	Y42	Z42	X43	Y43	Z43	X44	Y44	Z44	X45	Y45	Z45	X46	Y46	Z46	X47	Y47	Z47	X48	Y48	Z48	X49	Y49	Z49	X50	Y50	Z50	
0	0.0000	507.988621	1346.871230	-59.066431	508.666489	1352.336841	-414.401328	498.195557	1415.197269	-239.343648	468.754315	1262.073870	-229.640052	592.095733	1111.996221	5.080486	798.687388	886.935380	-66.242909	618.516508	1120.764048	-466.961887	804.142125	885.736995	-416.733626	-62.908972	1213.191156	-250.080406	115.655749	1176.738190	-397.318012	93.163810	1211.050259	-83.526483	126.115963	1115.334945	-358.397739	108.204440	1155.978915	-115.164099	-30.093952	1255.632199	-201.083019	-20.099754	1248.950983	-295.570220	6.163035	1121.681511	-39.103965	17.682583	1066.708454	-418.133607	149.826420	1027.608762	-39.206802	236.298344	1007.511029	-40.500799	299.368113	947.240540	-46.700736	252.264699	1039.071932	-53.054005	397.107200	877.394363	-68.413867	379.670281	863.663311	-174.925232	342.927161	759.329717	-36.149076	345.330455	670.402608	-54.103948	302.245997	595.369858	-58.471826	367.325897	682.299976	-73.652020	266.219070	482.000493	-68.075447	277.641155	505.944061	-155.253272	192.019250	434.821270	-110.168108	484.953112	495.395654	-109.697643	405.654226	444.002855	-42.652568	49.738059	932.443274	-432.898489	87.873159	853.805298	-426.272484	122.495758	860.520922	-415.597570	79.817984	765.390617	-421.356094	97.620437	639.139296	-392.269740	85.841116	617.690154	-292.007098	-4.298314	230.157091	-398.471580	10.096245	254.157985	-310.145152	-64.848482	178.077078	-358.347169	147.862545	203.629068	-419.002350	64.611694	513.514012	-423.019544	61.799137	429.816620	-402.822460	22.943240	350.894457	-407.985199	78.693155	429.803862	-367.895004	211.981386	261.789069	-349.490569	-193.381579	918.420526	-237.314336	10.869172	80.120123	-426.916020	10.476346	80.180002	-28.346984	
1	0.0050	507.888737	1346.874648	-59.199348	515.104714	1353.184496	-417.044740	498.056149	1415.109406	-239.458457	468.617038	1262.002611	-229.680696	591.993762	1111.942838	4.957774	798.707580	886.900852	-66.225985	618.594637	1120.845831	-466.681810	803.298583	885.212979	-415.681206	-63.096981	1213.217201	-250.104632	115.490284	1176.740843	-397.351537	92.990214	1210.953741	-83.565959	125.903963	1115.329052	-358.490444	107.967662	1155.968058	-115.222217	-30.287041	1255.691426	-201.124629	-20.318303	1249.014582	-295.585001	5.914681	1121.689699	-39.162016	17.467311	1066.775846	-418.162029	149.571478	1027.584903	-39.213439	235.802170	1007.661783	-40.722667	299.197005	947.035672	-46.815603	252.019663	1039.028774	-53.062118	396.808949	877.287747	-68.419775	379.398341	863.548068	-174.889322	342.727969	759.189463	-36.148507	345.159508	670.241330	-54.121561	302.132001	595.214733	-58.468740	367.237290	682.191960	-73.642655	266.201391	481.785192	-68.082754	277.617443	505.792431	-155.281346	192.038170	434.552531	-110.190340	484.933800	495.370847	-109.693489	405.661134	443.944174	-42.674102	49.538626	932.490626	-432.944148	87.695568	853.852488	-426.286079	122.308551	860.582188	-415.658210	79.615863	765.426298	-421.344316	97.457771	639.216395	-392.260984	85.708755	617.781123	-291.989069	-4.391023	230.225193	-398.469474	9.940898	254.265143	-310.121694	-64.920531	178.139034	-358.333564	147.772252	203.727872	-419.003745	64.484572	513.599814	-422.999061	61.665964	429.884333	-402.815701	22.848269	350.947460	-407.982165	78.559957	429.879579	-367.842892	211.880718	261.879197	-349.500531	-193.277125	918.358594	-237.201337	10.896206	80.231011	-426.914848	10.478429	80.195858	-28.371620	
2	0.0100	507.805895	1346.898039	-59.323104	514.938101	1353.241364	-417.046796	497.931440	1415.035445	-239.560132	468.421663	1261.983774	-229.700071	591.899025	1111.888968	4.805616	798.662393	886.904442	-66.278986	618.706911	1120.945668	-466.358988	803.313177	885.221365	-415.663615	-63.307197	1213.232448	-250.135550	115.357213	1176.748818	-397.405729	92.840655	1210.912798	-83.601494	126.280250	1114.995282	-358.715539	107.777273	1155.932339	-115.275513	-30.487089	1255.685056	-201.097706	-20.504793	1249.028353	-295.572951	5.691240	1121.665702	-39.214837	17.259910	1066.754055	-418.154842	149.367946	1027.548076	-39.223566	235.822019	1007.434732	-40.538037	298.968998	947.071915	-46.868729	251.794066	1038.955201	-53.102188	396.542513	877.200548	-68.432097	379.163796	863.449175	-174.920838	342.541550	759.030027	-36.157351	344.979897	670.071165	-54.180479	302.055219	595.042317	-58.482412	367.147649	682.099523	-73.631523	266.217020	481.505776	-68.104592	277.614209	505.618895	-155.290263	192.090523	434.285681	-110.209323	484.929793	495.371040	-109.692306	405.683510	443.865219	-42.674922	49.363878	932.524499	-432.981216	87.518701	853.900895	-426.307481	122.128637	860.671987	-415.707890	79.464813	765.470548	-421.322184	97.325033	639.289926	-392.240820	85.563036	617.861514	-291.973434	-4.500495	230.288692	-398.457542	9.641211	254.486859	-309.988041	-65.004526	178.186309	-358.312941	147.673696	203.835507	-419.005709	64.352565	513.685690	-422.991710	61.557978	429.946302	-402.809796	22.725031	351.033609	-407.967645	78.433055	429.941167	-367.824045	211.791248	261.981382	-349.491621	-193.278465	918.383143	-237.096439	10.904827	80.237089	-426.915203	10.468685	80.173812	-28.362073	
3	0.0150	507.730589	1346.909071	-59.479931	514.513730	1354.450086	-425.717280	497.927954	1415.120155	-239.738158	468.317839	1261.938336	-229.747774	591.813686	1111.848531	4.639310	798.692580	886.879007	-66.276965	618.228264	1122.228806	-470.058588	803.321034	885.191559	-415.636616	-63.518577	1213.226563	-250.138650	116.281653	1176.141137	-396.137494	92.533920	1211.291465	-84.265338	128.737405	1118.625571	-365.710289	107.588572	1155.900064	-115.325792	-31.010929	1254.967779	-201.716972	-20.493785	1248.874054	-295.351674	5.479341	1121.632705	-39.249043	16.536699	1067.491664	-420.052474	149.157819	1027.498877	-39.224235	235.630663	1008.059496	-39.473834	298.770812	947.000703	-46.756043	252.475051	1038.518324	-51.933968	396.255938	877.003211	-68.396403	380.718585	865.191761	-182.425955	343.317741	757.688173	-39.494184	345.356697	670.735933	-53.976976	301.095568	595.042353	-60.368249	369.286636	668.045119	-86.688144	266.076927	481.369537	-67.810285	276.585935	506.327446	-157.059415	192.124208	434.030457	-110.217360	484.972790	495.401515	-109.852532	405.627364	443.902349	-42.303221	48.705095	933.198239	-434.461224	87.414362	853.953021	-426.211331	128.160451	863.595375	-421.675353	78.977096	766.476905	-422.871592	101.310290	643.936735	-400.677774	84.563996	617.661435	-291.981489	-4.580980	230.327697	-398.422049	9.563636	254.523601	-309.995587	-65.078432	178.233541	-358.297441	146.784708	205.796491	-421.752250	64.362128	513.692628	-422.765208	61.231421	431.617639	-405.946479	21.982896	352.536834	-410.324210	78.308900	429.959465	-367.755348	211.685317	262.093801	-349.470389	-193.300756	918.367159	-237.147210	10.902330	80.238497	-426.920207	10.333467	79.731273	-29.164473	
